<svg xmlns="http://www.w3.org/2000/svg" xmlns:xlink="http://www.w3.org/1999/xlink" width="1340.8492" height="775.0000" viewBox="0 0 1340.8492 775.0000" role="img" aria-label="SWYRA stacked logo"><title>SWYRA stacked logo</title><g fill="#102D25" transform="translate(512.072218,74.346793) scale(0.32066508)"><path d="M 548 80 C 712 80 831 160 831 265 C 831 310 813 353 790 392 C 729 274 603 174 469 154 C 416 146 372 170 371 218 C 368 274 430 318 512 362 C 606 412 700 454 764 517 C 831 584 855 670 820 755 C 780 852 696 913 597 922 C 675 850 698 780 650 723 C 612 678 543 645 448 594 C 334 533 236 480 190 399 C 128 291 179 181 286 126 C 356 88 451 80 548 80 Z"/><path d="M 201 484 C 239 564 309 610 403 661 C 494 710 569 759 583 800 C 604 867 529 922 430 922 C 292 922 180 854 157 741 C 142 650 159 556 201 484 Z"/></g><path fill="#102D25" d="M164 518Q164 479 184.0 450.5Q204 422 235.5 399.0Q267 376 302 354Q340 331 374.5 305.0Q409 279 431.5 245.5Q454 212 454 164Q454 112 427.0 72.5Q400 33 352.5 10.5Q305 -12 241 -12Q214 -12 184.5 -7.0Q155 -2 129.5 7.0Q104 16 88 26Q84 29 81.5 33.0Q79 37 78 45L72 196Q71 201 76.5 201.5Q82 202 83 198Q95 168 111.5 134.5Q128 101 150.0 73.0Q172 45 200.5 27.5Q229 10 266 10Q292 10 315.0 19.0Q338 28 353.0 50.5Q368 73 368 112Q368 159 346.5 192.5Q325 226 292.0 251.0Q259 276 223 298Q188 321 156.0 345.0Q124 369 103.5 400.5Q83 432 83 477Q83 532 113.0 567.0Q143 602 189.5 619.0Q236 636 285 636Q318 636 352.0 630.0Q386 624 410 613Q419 610 422.0 605.0Q425 600 425 594L427 459Q427 455 422.5 454.0Q418 453 416 456Q411 471 401.0 497.5Q391 524 373.0 551.0Q355 578 328.0 597.0Q301 616 262 616Q232 616 210.0 604.0Q188 592 176.0 570.5Q164 549 164 518Z" transform="translate(77.009231,654.000000) scale(0.32000000,-0.32000000)"/><path fill="#102D25" d="M482 329 357 1Q356 -3 346.5 -3.0Q337 -3 335 1L82 542Q69 571 58.5 586.0Q48 601 35.5 607.0Q23 613 3 613Q0 613 0.0 619.0Q0 625 3 625Q16 625 24.5 624.0Q33 623 45.5 622.5Q58 622 79 622Q119 622 143.5 622.5Q168 623 185.0 624.0Q202 625 215 625Q218 625 218.0 619.0Q218 613 215 613Q175 613 167.5 597.5Q160 582 183 532L384 105L344 43L464 355ZM923 625Q925 625 925.0 619.0Q925 613 923 613Q888 613 858.0 586.5Q828 560 807 508L613 1Q612 -3 602.5 -3.0Q593 -3 591 1L338 542Q322 577 306.0 595.0Q290 613 268 613Q265 613 265.0 619.0Q265 625 268 625Q279 625 287.5 624.0Q296 623 306.5 622.5Q317 622 336 622Q384 622 406.5 623.5Q429 625 445 625Q448 625 448.0 619.0Q448 613 445 613Q417 613 416.0 598.5Q415 584 439 532L641 105L601 43L778 505Q796 554 782.0 583.5Q768 613 725 613Q722 613 722.0 619.0Q722 625 725 625Q751 625 774.5 623.5Q798 622 834 622Q862 622 880.0 623.5Q898 625 923 625ZM470 355 530 512Q551 565 548.5 589.0Q546 613 518 613Q515 613 515.0 619.0Q515 625 518 625Q528 625 532.5 624.0Q537 623 547.0 622.5Q557 622 583 622Q609 622 625.0 623.5Q641 625 664 625Q666 625 666.0 619.0Q666 613 664 613Q631 613 604.5 588.5Q578 564 557 508L488 329Z" transform="translate(257.169231,654.000000) scale(0.32000000,-0.32000000)"/><path fill="#102D25" d="M312 281 444 498Q476 550 468.5 581.5Q461 613 414 613Q412 613 412.0 619.0Q412 625 414 625Q445 625 472.0 623.5Q499 622 543 622Q568 622 583.5 623.5Q599 625 621 625Q623 625 623.0 619.0Q623 613 621 613Q600 613 573.0 597.5Q546 582 520.0 554.5Q494 527 471 490L332 265ZM270 273 109 519Q73 574 49.0 593.5Q25 613 3 613Q0 613 0.0 619.0Q0 625 3 625Q19 625 36.0 623.5Q53 622 68 622Q96 622 125.5 622.5Q155 623 181.5 624.0Q208 625 226 625Q228 625 228.0 619.0Q228 613 226 613Q193 613 186.0 596.0Q179 579 197 553L350 318ZM262 310 357 319V81Q357 52 362.0 37.0Q367 22 383.0 17.0Q399 12 432 12Q435 12 435.0 6.0Q435 0 432 0Q407 0 376.5 1.0Q346 2 309 2Q274 2 241.5 1.0Q209 0 184 0Q182 0 182.0 6.0Q182 12 184 12Q217 12 233.5 17.0Q250 22 256.0 37.0Q262 52 262 81Z" transform="translate(559.889231,654.000000) scale(0.32000000,-0.32000000)"/><path fill="#102D25" d="M538 0 C 507 0 407 169 293 318 L373 342 C 433 247 523 121 590 64 C 625 34 657 23 687 26 L706 29 C 680 4 643 -17 604 -15 C 574 -13 556 0 538 0 Z M311 628Q398 628 445.5 593.5Q493 559 493 499Q493 442 460.5 397.0Q428 352 376.5 327.0Q325 302 266 302Q254 302 240.0 302.5Q226 303 215 304V81Q215 52 220.0 37.0Q225 22 241.5 17.0Q258 12 290 12Q293 12 293.0 6.0Q293 0 290 0Q265 0 234.0 1.0Q203 2 166 2Q131 2 99.0 1.0Q67 0 42 0Q39 0 39.0 6.0Q39 12 42 12Q75 12 91.0 17.0Q107 22 113.0 37.0Q119 52 119 81V544Q119 573 113.5 587.5Q108 602 92.0 607.5Q76 613 43 613Q41 613 41.0 619.0Q41 625 43 625Q68 625 99.5 623.5Q131 622 166 622Q198 622 238.0 625.0Q278 628 311 628ZM394 464Q394 522 380.5 553.5Q367 585 343.0 597.0Q319 609 287 609Q248 609 231.5 594.5Q215 580 215 542V331Q229 329 245.0 328.0Q261 327 273 327Q340 327 367.0 360.5Q394 394 394 464Z" transform="translate(773.009231,654.000000) scale(0.32000000,-0.32000000)"/><path fill="#102D25" d="M185 257 L203 292 L466 292 L483 257 Z M711 12Q715 12 715.0 6.0Q715 0 711 0Q681 0 649.5 2.0Q618 4 589 4Q556 4 531.5 2.0Q507 0 477 0Q473 0 473.0 6.0Q473 12 477 12Q522 12 531.0 28.0Q540 44 516 91L307 516L348 583L150 137Q124 76 148.5 44.0Q173 12 232 12Q237 12 237.0 6.0Q237 0 232 0Q202 0 177.0 2.0Q152 4 114 4Q76 4 53.5 2.0Q31 0 -2 0Q-6 0 -6.0 6.0Q-6 12 -2 12Q25 12 44.5 23.0Q64 34 83.0 63.5Q102 93 125 146L340 631Q342 634 349.0 634.0Q356 634 357 631L602 137Q625 89 643.0 61.5Q661 34 677.0 23.0Q693 12 711 12Z" transform="translate(1012.049231,654.000000) scale(0.32000000,-0.32000000)"/></svg>